<svg viewBox="0 0 44 52" fill="none" xmlns="http://www.w3.org/2000/svg">
<circle cx="22" cy="26" r="22" fill="black"/>
<path d="M21.4 43.48V40.4C18.7867 40.1067 16.6933 39.1867 15.12 37.64C13.5467 36.0933 12.7467 34.0667 12.72 31.56H17.2C17.2267 32.8133 17.6 33.92 18.32 34.88C19.04 35.8133 20.0667 36.44 21.4 36.76V27.12C21.1867 27.0667 20.96 27 20.72 26.92C20.5067 26.84 20.28 26.76 20.04 26.68C17.88 25.96 16.2533 25.0267 15.16 23.88C14.0933 22.7333 13.56 21.2267 13.56 19.36C13.5333 17.1733 14.24 15.3867 15.68 14C17.12 12.6133 19.0267 11.8 21.4 11.56V8.36H24.12V11.6C26.44 11.8667 28.3067 12.7067 29.72 14.12C31.1333 15.5333 31.8533 17.3067 31.88 19.44H27.4C27.3733 18.56 27.08 17.7333 26.52 16.96C25.9867 16.16 25.1867 15.6133 24.12 15.32V23.88C24.3333 23.96 24.5467 24.04 24.76 24.12C24.9733 24.1733 25.1867 24.24 25.4 24.32C26.7867 24.7733 28.0267 25.32 29.12 25.96C30.2133 26.6 31.08 27.44 31.72 28.48C32.3867 29.52 32.72 30.84 32.72 32.44C32.72 33.7733 32.4 35.0267 31.76 36.2C31.12 37.3467 30.16 38.3067 28.88 39.08C27.6 39.8533 26.0133 40.3067 24.12 40.44V43.48H21.4ZM17.96 19C17.96 20.0667 18.2667 20.8933 18.88 21.48C19.4933 22.04 20.3333 22.5333 21.4 22.96V15.2C20.3867 15.3867 19.56 15.8133 18.92 16.48C18.28 17.12 17.96 17.96 17.96 19ZM28.24 32.72C28.24 31.4133 27.8533 30.4267 27.08 29.76C26.3067 29.0667 25.32 28.4933 24.12 28.04V36.84C25.4267 36.68 26.44 36.2267 27.16 35.48C27.88 34.7333 28.24 33.8133 28.24 32.72Z" fill="#F8F8F8"/>
</svg>
