<svg width="150" height="150" viewBox="0 0 150 150" fill="none" xmlns="http://www.w3.org/2000/svg">
<path fill-rule="evenodd" clip-rule="evenodd" d="M75 150C116.421 150 150 116.421 150 75C150 33.5786 116.421 0 75 0C33.5786 0 0 33.5786 0 75C0 116.421 33.5786 150 75 150ZM65.4579 40.0519L68.0678 41.899C70.0948 43.3335 72.5169 44.1039 74.9999 44.1039C77.4834 44.1039 79.9056 43.3335 81.9325 41.8989L84.5424 40.0519C88.2672 37.4157 92.7184 36 97.2814 36H100.466C102.568 36 104.691 36.1325 106.672 36.8351C119.062 41.2294 127.585 57.2942 126.969 93.7335C126.844 101.075 125.126 109.19 118.502 112.358C116.438 113.345 114.017 114 111.261 114C107.954 114 105.327 113.057 103.3 111.729C101.175 110.336 99.3032 108.525 97.4322 106.715L97.4322 106.715C95.1202 104.478 92.8094 102.242 90.0217 100.797C86.9849 99.2221 83.6142 98.4 80.1942 98.4H69.8056C66.3856 98.4 63.0149 99.2221 59.9784 100.797C57.1905 102.242 54.8796 104.478 52.5678 106.715C50.6969 108.525 48.8253 110.336 46.6996 111.729C44.6725 113.057 42.0462 114 38.7389 114C35.9827 114 33.5623 113.345 31.498 112.358C24.8735 109.19 23.1556 101.075 23.0314 93.7335C22.4149 57.2942 30.9375 41.2294 43.3275 36.8351C45.3084 36.1325 47.4315 36 49.5333 36H52.7182C57.2817 36 61.7328 37.4157 65.4579 40.0519ZM103.6 60.7C103.6 58.5461 101.854 56.8 99.6999 56.8C97.546 56.8 95.7999 58.5461 95.7999 60.7C95.7999 62.8538 97.546 64.6 99.6999 64.6C101.854 64.6 103.6 62.8538 103.6 60.7ZM55.4999 62C55.4999 59.8461 53.7538 58.1 51.5999 58.1C49.4461 58.1 47.6999 59.8461 47.6999 62V65.9H43.8C41.6461 65.9 39.9 67.6462 39.9 69.8C39.9 71.9538 41.6461 73.7 43.8 73.7H47.6999V77.6C47.6999 79.7538 49.4461 81.5 51.5999 81.5C53.7538 81.5 55.4999 79.7538 55.4999 77.6V73.7H59.3999C61.5538 73.7 63.2999 71.9538 63.2999 69.8C63.2999 67.6462 61.5538 65.9 59.3999 65.9H55.4999V62ZM107.5 72.4C109.654 72.4 111.4 70.6538 111.4 68.5C111.4 66.3462 109.654 64.6 107.5 64.6C105.346 64.6 103.6 66.3462 103.6 68.5C103.6 70.6538 105.346 72.4 107.5 72.4ZM95.7999 68.5C95.7999 70.6538 94.0537 72.4 91.8999 72.4C89.746 72.4 87.9999 70.6538 87.9999 68.5C87.9999 66.3462 89.746 64.6 91.8999 64.6C94.0537 64.6 95.7999 66.3462 95.7999 68.5ZM99.6999 72.4C101.854 72.4 103.6 74.1462 103.6 76.3C103.6 78.4538 101.854 80.2 99.6999 80.2C97.546 80.2 95.7999 78.4538 95.7999 76.3C95.7999 74.1462 97.546 72.4 99.6999 72.4Z" fill="#FF3A29"/>
</svg>
