<svg width="150" height="150" viewBox="0 0 150 150" fill="none" xmlns="http://www.w3.org/2000/svg">
<path fill-rule="evenodd" clip-rule="evenodd" d="M75 150C116.421 150 150 116.421 150 75C150 33.5786 116.421 0 75 0C33.5786 0 0 33.5786 0 75C0 116.421 33.5786 150 75 150ZM119.122 88.3469H58.5764L59.8696 86.2492C60.4241 85.3496 60.5869 84.2619 60.3213 83.2383L59.0592 78.3797L115.251 75.4599C117.381 75.3513 119.122 73.5153 119.122 71.3826V45.6939C119.122 43.5612 117.378 41.8163 115.245 41.8163H49.5572L48.7992 38.9023C48.3552 37.1923 46.8119 36 45.0457 36H31.8776C29.7371 36 28 37.7371 28 39.8776C28 42.018 29.7371 43.7551 31.8776 43.7551H42.0484L52.4014 83.5872L48.33 90.1888C47.5933 91.385 47.5603 92.8875 48.2466 94.1129C48.9291 95.3401 50.2242 96.102 51.6298 96.102H119.122C121.263 96.102 123 94.3649 123 92.2245C123 90.0841 121.263 88.3469 119.122 88.3469ZM64.8366 105.796C64.8366 110.079 61.3645 113.551 57.0815 113.551C52.7985 113.551 49.3264 110.079 49.3264 105.796C49.3264 101.513 52.7985 98.041 57.0815 98.041C61.3645 98.041 64.8366 101.513 64.8366 105.796ZM121.061 105.796C121.061 110.079 117.589 113.551 113.306 113.551C109.023 113.551 105.551 110.079 105.551 105.796C105.551 101.513 109.023 98.041 113.306 98.041C117.589 98.041 121.061 101.513 121.061 105.796Z" fill="#FF3A29"/>
</svg>
