<svg width="150" height="150" viewBox="0 0 150 150" fill="none" xmlns="http://www.w3.org/2000/svg">
<path fill-rule="evenodd" clip-rule="evenodd" d="M75 150C116.421 150 150 116.421 150 75C150 33.5786 116.421 0 75 0C33.5786 0 0 33.5786 0 75C0 116.421 33.5786 150 75 150ZM100.456 37.9824L118.403 63.614L126.947 57.6316L120.965 49.0869L129.508 43.1045L123.526 34.5605L114.982 40.543L109 32L100.456 37.9824ZM99.605 64.0437L108.579 76.8591L117.122 70.877L93.1926 36.7014L84.6487 42.6838L93.6223 55.4998L50.9031 85.4124L41.9294 72.5962L33.3855 78.5784L57.3154 112.754L65.8589 106.771L56.8855 93.9561L99.605 64.0437ZM32.105 85.8413L50.0522 111.473L41.5085 117.455L35.5264 108.912L26.9824 114.894L21 106.35L29.5437 100.368L23.5613 91.824L32.105 85.8413Z" fill="#FF3A29"/>
</svg>
