<svg width="150" height="150" viewBox="0 0 150 150" fill="none" xmlns="http://www.w3.org/2000/svg">
<path fill-rule="evenodd" clip-rule="evenodd" d="M75 150C116.421 150 150 116.421 150 75C150 33.5786 116.421 0 75 0C33.5786 0 0 33.5786 0 75C0 116.421 33.5786 150 75 150ZM28 63.0778C28 79.6522 46.8913 97.1821 60.7201 107.794C66.9804 112.598 70.1106 115 75 115C79.8894 115 83.0196 112.598 89.28 107.794C103.109 97.1821 122 79.6527 122 63.0777C122 35.3888 96.1491 25.0511 75 46.4405C53.8508 25.0511 28 35.3888 28 63.0778ZM99.675 53.8235C99.675 51.8743 98.0967 50.2941 96.15 50.2941C94.2033 50.2941 92.625 51.8743 92.625 53.8235V59.706H86.75C84.8033 59.706 83.225 61.2861 83.225 63.2354C83.225 65.1846 84.8033 66.7648 86.75 66.7648H92.625V72.6471C92.625 74.5962 94.2033 76.1765 96.15 76.1765C98.0967 76.1765 99.675 74.5962 99.675 72.6471V66.7648H105.55C107.497 66.7648 109.075 65.1846 109.075 63.2354C109.075 61.2861 107.497 59.706 105.55 59.706H99.675V53.8235Z" fill="#FF3A29"/>
</svg>
