<svg width="150" height="150" viewBox="0 0 150 150" fill="none" xmlns="http://www.w3.org/2000/svg">
<path fill-rule="evenodd" clip-rule="evenodd" d="M75 150C116.421 150 150 116.421 150 75C150 33.5786 116.421 0 75 0C33.5786 0 0 33.5786 0 75C0 116.421 33.5786 150 75 150ZM74.7507 34.4076C51.4032 34.4076 32.4076 53.4032 32.4076 76.7507C32.4076 93.5627 42.3591 108.792 57.7621 115.55L53.9813 124.165C35.161 115.909 23 97.2984 23 76.752C23 48.216 46.216 25 74.752 25C103.288 25 126.504 48.216 126.504 76.752C126.504 80.2325 126.155 83.7168 125.465 87.1122L116.244 85.2418C116.806 82.46 117.094 79.6034 117.094 76.7507C117.094 53.4032 98.0982 34.4076 74.7507 34.4076ZM74.7507 62.486L86.6462 50.5906L93.299 57.2434L84.8415 65.701H91.3616V75.1111H79.4558V79.0531H90.9903V88.4632H79.4558V99.584H70.0456V88.4632H58.5085V79.0531H70.0456V75.1111H58.1386V65.701H64.6586L56.2024 57.2434L62.8552 50.5906L74.7507 62.486ZM104.22 104.975H111.185L94.0479 122.113L80.1647 108.228L56.4343 131.959L63.0872 138.612L80.1647 121.534L94.0479 135.419L117.094 112.373V117.849H126.503V95.5659H104.22V104.975Z" fill="#34B53A"/>
</svg>
