<svg width="90" height="90" viewBox="0 0 90 90" fill="none" xmlns="http://www.w3.org/2000/svg">
<path fill-rule="evenodd" clip-rule="evenodd" d="M60 5C60 2.23858 57.7614 0 55 0H35C32.2386 0 30 2.23858 30 5V25C30 27.7614 27.7614 30 25 30L5 30C2.23858 30 0 32.2386 0 35V55C0 57.7614 2.23858 60 5 60H25C27.7614 60 30 62.2386 30 65V85C30 87.7614 32.2386 90 35 90H55C57.7614 90 60 87.7614 60 85V65C60 62.2386 62.2386 60 65 60H85C87.7614 60 90 57.7614 90 55V35C90 32.2386 87.7614 30 85 30L65 30C62.2386 30 60 27.7614 60 25V5Z" fill="#CCCCCC"/>
</svg>
