<svg width="150" height="150" viewBox="0 0 150 150" fill="none" xmlns="http://www.w3.org/2000/svg">
<path fill-rule="evenodd" clip-rule="evenodd" d="M75 150C116.421 150 150 116.421 150 75C150 33.5786 116.421 0 75 0C33.5786 0 0 33.5786 0 75C0 116.421 33.5786 150 75 150ZM33.1087 68.4937C31.5972 70.6096 30.7739 73.1374 30.75 75.7351V93.5658C30.7517 94.3534 31.0662 95.1084 31.6247 95.6653C32.1832 96.2223 32.9403 96.5359 33.7301 96.5376H37.9399V105.778C37.9416 106.566 38.2561 107.321 38.8146 107.878C39.3731 108.435 40.1302 108.748 40.92 108.75H47.0559C47.8458 108.748 48.6028 108.435 49.1614 107.878C49.7199 107.321 50.0344 106.566 50.036 105.778V96.5376H99.9639V105.778C99.9656 106.566 100.28 107.321 100.839 107.878C101.397 108.435 102.154 108.748 102.944 108.75H109.08C109.87 108.748 110.627 108.435 111.185 107.878C111.744 107.321 112.058 106.566 112.06 105.778V96.5376H116.27C117.06 96.5359 117.817 96.2223 118.375 95.6653C118.934 95.1084 119.248 94.3534 119.25 93.5658V75.7351C119.227 73.1381 118.404 70.6109 116.894 68.495C115.384 66.3792 113.258 64.7768 110.805 63.9043L103.935 46.2363C103.324 44.7956 102.311 43.5601 101.016 42.6763C99.7221 41.7925 98.2005 41.2975 96.6325 41.25H53.3675C51.7994 41.2975 50.2779 41.7925 48.9835 42.6763C47.6891 43.5601 46.6761 44.7956 46.0647 46.2363L39.201 63.9043C36.7468 64.7757 34.6201 66.3777 33.1087 68.4937ZM49.3611 72.1925C50.0711 73.2523 50.4501 74.4981 50.4501 75.7727C50.4501 76.6189 50.283 77.4569 49.9582 78.2387C49.6335 79.0205 49.1575 79.7309 48.5574 80.3293C47.9573 80.9277 47.245 81.4024 46.4609 81.7262C45.6769 82.05 44.8366 82.2167 43.988 82.2167C42.7099 82.2167 41.4605 81.8388 40.3978 81.1307C39.3351 80.4226 38.5068 79.4162 38.0177 78.2387C37.5286 77.0612 37.4007 75.7655 37.65 74.5155C37.8993 73.2655 38.5148 72.1172 39.4186 71.216C40.3223 70.3148 41.4737 69.7011 42.7273 69.4524C43.9808 69.2038 45.2801 69.3314 46.4609 69.8191C47.6417 70.3069 48.651 71.1328 49.3611 72.1925ZM103.032 63.116H46.9556L52.5519 48.7451C52.7477 48.4664 53.037 48.2667 53.3675 48.1821H96.6199C96.9551 48.264 97.2492 48.464 97.4481 48.7451L103.032 63.116ZM111.372 72.1919C112.082 73.2517 112.462 74.4979 112.462 75.7727C112.462 77.4817 111.787 79.1208 110.575 80.3293C109.363 81.5378 107.72 82.2167 106.006 82.2167C104.727 82.218 103.477 81.8411 102.414 81.1338C101.35 80.4264 100.521 79.4204 100.031 78.243C99.541 77.0657 99.4121 75.7698 99.6607 74.5193C99.9094 73.2689 100.524 72.1201 101.428 71.2182C102.331 70.3164 103.483 69.702 104.736 69.4529C105.99 69.2037 107.29 69.331 108.471 69.8185C109.652 70.3061 110.662 71.132 111.372 72.1919Z" fill="#FF3A29"/>
</svg>
